<svg xmlns="http://www.w3.org/2000/svg" width="1280" height="1144" viewBox="0 0 1280 1144" version="1.1"><path d="M 584.500 27.095 C 566.117 28.769, 535.470 34.083, 518.500 38.538 C 513 39.982, 506.808 41.580, 504.740 42.089 C 502.672 42.598, 497.047 44.189, 492.240 45.625 C 487.433 47.061, 480.575 49.066, 477 50.081 C 463.637 53.874, 431.172 65.714, 417 71.963 C 395.450 81.465, 361.735 98.914, 350.489 106.386 C 348.295 107.844, 345.825 109.480, 345 110.021 C 344.175 110.562, 339.450 113.780, 334.500 117.171 C 329.550 120.562, 321.225 126.259, 316 129.830 C 299.445 141.145, 284.082 153.013, 277.053 159.918 C 276.168 160.788, 273.018 163.525, 270.053 166 C 258.905 175.306, 244.198 189.191, 235.500 198.623 C 200.477 236.599, 181.132 261.080, 166.912 285.421 C 163.031 292.065, 157.817 300.875, 155.326 305 C 149.879 314.019, 130.006 353.274, 126.975 361 C 125.789 364.025, 124.243 367.625, 123.540 369 C 122.837 370.375, 121.034 375.325, 119.533 380 C 118.032 384.675, 116.213 390.075, 115.491 392 C 111.704 402.095, 100.977 436.681, 99.208 444.500 C 95.193 462.256, 94.027 468.657, 92.924 479 C 92.308 484.775, 91.367 491.525, 90.832 494 C 90.298 496.475, 89.432 504.350, 88.908 511.500 C 88.383 518.650, 87.515 528.325, 86.977 533 C 86.440 537.675, 85.716 554.100, 85.367 569.500 C 84.763 596.226, 85.456 613.261, 87.992 634 C 88.497 638.125, 89.369 646, 89.931 651.500 C 91.260 664.516, 94.526 686.571, 95.864 691.570 C 96.443 693.731, 98.129 701.125, 99.612 708 C 106.114 738.139, 122.070 780.060, 141.938 819.198 C 152.305 839.620, 156.884 847.619, 170.448 869 C 184.400 890.994, 199.243 911.209, 214.870 929.500 C 226.544 943.164, 257.217 973.412, 270 983.864 C 275.775 988.587, 280.725 992.696, 281 992.997 C 283.576 995.812, 314.230 1017.876, 327.250 1026.286 C 330.413 1028.329, 335.363 1031.540, 338.250 1033.422 C 360.062 1047.637, 402.368 1069.496, 429 1080.311 C 459.798 1092.818, 499.608 1104.014, 536.411 1110.519 C 572.663 1116.926, 615.194 1119.600, 654.500 1117.942 C 667.150 1117.408, 679.975 1116.557, 683 1116.050 C 686.025 1115.544, 691.875 1114.849, 696 1114.507 C 714.148 1113.001, 741.395 1107.565, 769 1099.942 C 805.467 1089.871, 822.698 1083.826, 847.945 1072.248 C 900.861 1047.979, 947.833 1017.901, 984 985.126 C 989.775 979.893, 995.400 974.810, 996.500 973.831 C 1001.887 969.038, 1046.634 921.015, 1050.714 915.647 C 1053.285 912.266, 1057.440 907.222, 1059.949 904.437 C 1062.458 901.652, 1066.083 896.789, 1068.005 893.629 C 1069.927 890.470, 1075.595 881.723, 1080.599 874.192 C 1108.766 831.806, 1129.042 791.349, 1142.087 751.500 C 1144.788 743.250, 1147.491 735, 1148.094 733.166 C 1150.156 726.896, 1157.062 698.514, 1159.085 688 C 1167.487 644.324, 1171.796 595.367, 1170.613 557 C 1169.996 536.985, 1166.930 501.993, 1165.005 493 C 1164.475 490.525, 1163.371 484, 1162.550 478.500 C 1158.692 452.650, 1155.585 439.706, 1145.984 409.500 C 1136.368 379.246, 1127.020 355.315, 1113.953 327.500 C 1104.466 307.306, 1074.901 260.062, 1060.380 241.891 C 1043.664 220.973, 1032.161 208.118, 1012.519 188.403 C 982.580 158.353, 964.364 143.237, 929.500 119.507 C 922.350 114.641, 914.475 109.255, 912 107.539 C 902.572 101.001, 884.884 91.023, 869 83.283 C 853.833 75.891, 850.079 74.125, 840 69.640 C 830.495 65.411, 802.409 54.972, 794 52.543 C 788.775 51.034, 782.700 49.214, 780.500 48.498 C 757.010 40.854, 711.518 31.596, 684.500 28.960 C 677.900 28.316, 668.900 27.415, 664.500 26.957 C 654.382 25.906, 596.464 26.005, 584.500 27.095 M 589.500 79.647 C 566.643 82.297, 530.824 88.340, 522 91.035 C 516.775 92.631, 509.575 94.653, 506 95.528 C 496.068 97.959, 460.193 110.180, 444.500 116.478 C 419.719 126.423, 382.544 146.435, 359 162.505 C 320.437 188.825, 290.475 213.994, 268.514 238.514 C 236.506 274.252, 223.501 291.380, 206.503 320.185 C 189.681 348.690, 181.453 366.026, 171.470 394 C 154.780 440.764, 148.874 462.428, 143.520 496.517 C 139.121 524.527, 138.499 534.492, 138.525 576.500 C 138.547 612.101, 138.802 618.535, 140.848 635 C 145.977 676.289, 159.330 726.903, 174.486 762.500 C 195.278 811.336, 221.247 853.365, 253.885 891 C 271.593 911.420, 310.778 948.939, 335 968.666 C 346.094 977.702, 360.070 987.187, 361.488 986.643 C 362.171 986.381, 362.941 983.970, 363.198 981.286 C 364.194 970.922, 373.362 956.686, 384.448 948.287 C 396.206 939.380, 408.667 935.382, 426.722 934.725 C 431.794 934.541, 436.240 934.093, 436.603 933.731 C 436.965 933.368, 436.527 931.522, 435.628 929.628 C 422.840 902.680, 418.258 869.592, 422.532 835.066 C 427.595 794.168, 440.948 764.761, 470 730.527 C 481.528 716.942, 498.247 703.391, 540 673.786 C 557.132 661.639, 564.691 654.738, 570.597 645.855 C 582.875 627.385, 585.285 607.647, 577.233 591.500 C 570.906 578.812, 558.762 567.305, 536 552.431 C 507.932 534.089, 487.908 518.805, 476.912 507.331 C 450.707 479.985, 432.017 445.331, 425.050 411.171 C 417.711 375.187, 421.798 331.361, 435.428 299.895 L 438.722 292.290 427.997 291.676 C 400.042 290.077, 377.763 275.049, 366.053 249.893 C 361.530 240.176, 359.998 232.852, 360.017 221.040 C 360.040 207.340, 361.974 198.580, 367.057 189.157 C 374.835 174.737, 386.840 163.601, 402.160 156.597 C 415.773 150.373, 427.321 149.161, 462 150.316 C 475.475 150.764, 565.475 151.283, 662 151.469 L 837.500 151.806 844 153.979 C 858.106 158.695, 876.305 173.429, 883.855 186.247 C 894.786 204.807, 896.774 225.470, 889.611 246.070 C 885.999 256.456, 881.453 263.522, 872.940 271.985 C 860.693 284.158, 846.327 290.037, 825.156 291.538 C 818.189 292.032, 815.046 292.625, 815.381 293.383 C 819.688 303.137, 826.018 319.945, 827.289 325 C 834.484 353.608, 835.452 386.833, 829.854 413 C 825.949 431.253, 809.722 467.323, 799.252 481.028 C 774.637 513.242, 762.917 523.663, 721.936 549.773 C 685.855 572.761, 671.588 592.146, 673.274 615.890 C 674.587 634.375, 688.014 655.940, 705.500 667.646 C 760.684 704.588, 771.932 713.705, 790.451 736.500 C 802.991 751.935, 809.296 762.826, 818.851 785.557 C 824.939 800.039, 829.413 815.602, 831.468 829.436 C 833.203 841.122, 833.507 873.124, 831.993 884.777 C 830.482 896.410, 825.436 915.805, 821.568 924.841 C 819.606 929.426, 818 933.362, 818 933.589 C 818 933.815, 821.316 934, 825.369 934 C 854.511 934, 875.986 947.048, 887.067 971.488 C 888.654 974.988, 890.246 979.685, 890.604 981.926 C 890.962 984.167, 891.662 986, 892.158 986 C 894.320 986, 930.295 957.769, 947.137 942.857 C 962.748 929.035, 972.755 919.101, 988.355 901.941 C 1029.470 856.714, 1056.307 815.943, 1077.506 766.500 C 1087.477 743.246, 1100.150 700.833, 1105.892 671.500 C 1112.601 637.228, 1114.467 615.856, 1114.403 574 C 1114.333 527.797, 1112.909 509.412, 1106.959 477.929 C 1103.505 459.653, 1099.528 445.747, 1086.674 407 C 1074.065 368.993, 1067.638 354.605, 1050.720 326.500 C 1016.913 270.339, 976.642 223.860, 928.688 185.654 C 913.768 173.767, 887.784 155.628, 874 147.477 C 867.675 143.737, 860.025 139.217, 857 137.433 C 840.339 127.609, 808.183 113.767, 780.664 104.573 C 761.230 98.080, 726.345 89.348, 706.500 86.010 C 673.781 80.505, 655.108 78.985, 622.272 79.150 C 605.898 79.232, 591.150 79.456, 589.500 79.647 M 430 198.936 C 422.831 200.383, 414.949 206.538, 412.352 212.718 C 407.688 223.816, 414.828 238.498, 427.648 244.168 C 431.767 245.990, 437.933 246.040, 628.199 245.774 L 824.500 245.500 829.463 243.212 C 836.036 240.182, 837.834 238.458, 840.632 232.500 C 845.219 222.733, 843.111 212.997, 834.746 205.317 C 826.127 197.404, 842.967 197.986, 626.568 198.115 C 520.381 198.178, 431.925 198.548, 430 198.936 M 312.984 288.854 C 306.257 292.434, 303.224 301.813, 306.364 309.329 C 309.103 315.885, 317.177 320.176, 323.695 318.541 C 328.212 317.407, 334.597 310.149, 335.355 305.286 C 336.206 299.831, 333.925 294.020, 329.362 290.013 C 326.580 287.571, 325.035 287, 321.200 287 C 318.512 287, 314.964 287.801, 312.984 288.854 M 924.010 291.610 C 912.765 301.769, 918.745 318, 933.733 318 C 939.373 318, 944.138 315.058, 946.750 309.964 C 950.565 302.524, 949.357 297.155, 942.516 291.148 C 939.431 288.439, 938.169 288, 933.468 288 C 928.598 288, 927.572 288.392, 924.010 291.610 M 503.374 292.689 C 500.561 293.241, 498.170 295.971, 492.593 305 C 470.796 340.284, 469.491 396.244, 489.536 436.067 C 497.695 452.277, 514.115 472.862, 527.500 483.659 C 531.900 487.209, 545.237 496.638, 557.138 504.614 C 585.600 523.690, 597.945 533.652, 605.224 543.418 C 612.925 553.750, 619.110 565.350, 623.623 577.926 C 626.517 585.991, 627.545 587.916, 628.162 586.426 C 628.601 585.367, 630.788 579.700, 633.022 573.834 C 640.218 554.935, 654.092 535.686, 669.338 523.448 C 673.827 519.845, 682.900 513.491, 689.500 509.327 C 717.427 491.708, 734.013 478.562, 745.329 465.075 C 769.511 436.253, 779.348 411.132, 780.699 374.749 C 781.562 351.509, 779.176 337.576, 771.236 319.500 C 767.848 311.786, 757.928 293.722, 756.555 292.765 C 755.473 292.012, 507.207 291.937, 503.374 292.689 M 618.591 374.573 C 612.896 376.660, 608.422 380.425, 605.272 385.784 C 602.921 389.783, 602.512 391.564, 602.581 397.500 C 602.718 409.240, 607.698 417.428, 618.060 422.951 C 623.297 425.743, 624.976 426.165, 629.356 425.793 C 638.696 425, 647.367 418.993, 651.480 410.467 C 654.300 404.621, 654.135 393.945, 651.129 387.753 C 645.433 376.021, 630.808 370.097, 618.591 374.573 M 219.919 473.942 C 207.995 474.471, 207.139 474.651, 203.550 477.392 C 192.665 485.702, 193.973 503.120, 205.990 509.874 C 209.828 512.031, 210.705 512.092, 233.930 511.801 L 257.907 511.500 261.921 507.579 C 266.844 502.769, 269 498.420, 269 493.295 C 269 487.544, 264.735 479.766, 259.715 476.360 C 255.699 473.635, 254.957 473.497, 244 473.442 C 237.675 473.410, 226.838 473.635, 219.919 473.942 M 1001 474.022 C 994.856 475.456, 989.011 484.220, 989.011 492 C 989.011 496.805, 991.161 502.172, 994.618 505.999 C 999.303 511.185, 1003.666 512, 1026.737 512 C 1044.196 512, 1045.576 511.863, 1048.528 509.840 C 1059.375 502.408, 1061.005 486.853, 1051.834 478.298 C 1046.825 473.626, 1043.348 472.993, 1023.282 473.102 C 1012.952 473.159, 1002.925 473.572, 1001 474.022 M 608.800 682.762 C 607.150 685.555, 595.435 697.342, 589 702.683 C 580.549 709.698, 571.030 716.681, 556.300 726.669 C 537.050 739.724, 528.112 746.840, 516.981 757.977 C 494.934 780.033, 485.123 796.716, 479.460 821.778 C 472.596 852.153, 473.826 881.340, 483.073 907.552 C 486.470 917.180, 492.603 930.085, 494.294 931.162 C 495.872 932.167, 498.838 930.731, 508.588 924.238 C 513.490 920.974, 524.250 914.038, 532.500 908.824 C 540.750 903.610, 559.200 891.772, 573.500 882.517 C 587.800 873.262, 602.200 864.219, 605.500 862.420 C 613.965 857.808, 622.186 855.636, 628.652 856.304 C 635.219 856.981, 648.225 863.036, 664.500 872.991 C 671.100 877.028, 682.800 884.152, 690.500 888.822 C 698.200 893.493, 709.675 900.774, 716 905.002 C 741.965 922.361, 759.215 932.516, 761.347 931.696 C 763.249 930.965, 771.591 913.173, 774.802 903 C 776.451 897.775, 778.578 889, 779.528 883.500 C 781.871 869.938, 781.909 844.645, 779.605 832.670 C 777.328 820.840, 771.161 803.635, 765.903 794.445 C 760.947 785.782, 749.715 770.471, 743.667 764.134 C 733.423 753.399, 704.351 730.348, 676 710.482 C 671.325 707.207, 662.550 699.569, 656.500 693.511 L 645.500 682.495 645.500 724.497 L 645.500 766.500 643.200 770.200 C 637.294 779.697, 624.575 781.562, 615.839 774.211 C 610.039 769.331, 609.917 768.386, 609.967 728.688 C 609.992 708.785, 610.296 689.688, 610.644 686.250 C 610.992 682.813, 611.086 680, 610.854 680 C 610.621 680, 609.697 681.243, 608.800 682.762 M 620.301 799.593 C 610.791 803.080, 603.952 814.525, 605.442 824.459 C 606.427 831.031, 611.697 838.949, 616.907 841.685 C 626.399 846.670, 639.702 843.536, 646.009 834.828 C 648.789 830.991, 649 830.082, 649 821.928 C 649 813.553, 648.851 812.961, 645.715 808.849 C 639.093 800.166, 628.881 796.447, 620.301 799.593 M 429.882 979.381 C 419.107 983.231, 411 993.587, 411 1003.500 C 411 1013.232, 421.021 1024.430, 432.500 1027.525 C 434.150 1027.970, 522.125 1028.221, 628 1028.083 C 814.632 1027.840, 820.666 1027.774, 825.954 1025.920 C 832.101 1023.765, 838.102 1018.514, 841.290 1012.500 C 843.977 1007.430, 844.183 997.937, 841.707 993.297 C 839.148 988.503, 833.123 983.022, 827.500 980.374 L 822.500 978.020 628 978.054 C 471.567 978.081, 432.792 978.341, 429.882 979.381" stroke="none" fill="#322d04" fill-rule="evenodd"/><path d="M 589.500 79.647 C 566.643 82.297, 530.824 88.340, 522 91.035 C 516.775 92.631, 509.575 94.653, 506 95.528 C 496.068 97.959, 460.193 110.180, 444.500 116.478 C 419.719 126.423, 382.544 146.435, 359 162.505 C 320.437 188.825, 290.475 213.994, 268.514 238.514 C 236.506 274.252, 223.501 291.380, 206.503 320.185 C 189.681 348.690, 181.453 366.026, 171.470 394 C 154.780 440.764, 148.874 462.428, 143.520 496.517 C 139.121 524.527, 138.499 534.492, 138.525 576.500 C 138.547 612.101, 138.802 618.535, 140.848 635 C 145.977 676.289, 159.330 726.903, 174.486 762.500 C 195.278 811.336, 221.247 853.365, 253.885 891 C 271.593 911.420, 310.778 948.939, 335 968.666 C 346.094 977.702, 360.070 987.187, 361.488 986.643 C 362.171 986.381, 362.941 983.970, 363.198 981.286 C 364.194 970.922, 373.362 956.686, 384.448 948.287 C 396.206 939.380, 408.667 935.382, 426.722 934.725 C 431.794 934.541, 436.240 934.093, 436.603 933.731 C 436.965 933.368, 436.527 931.522, 435.628 929.628 C 422.840 902.680, 418.258 869.592, 422.532 835.066 C 427.595 794.168, 440.948 764.761, 470 730.527 C 481.528 716.942, 498.247 703.391, 540 673.786 C 557.132 661.639, 564.691 654.738, 570.597 645.855 C 582.875 627.385, 585.285 607.647, 577.233 591.500 C 570.906 578.812, 558.762 567.305, 536 552.431 C 507.932 534.089, 487.908 518.805, 476.912 507.331 C 450.707 479.985, 432.017 445.331, 425.050 411.171 C 417.711 375.187, 421.798 331.361, 435.428 299.895 L 438.722 292.290 427.997 291.676 C 400.042 290.077, 377.763 275.049, 366.053 249.893 C 361.530 240.176, 359.998 232.852, 360.017 221.040 C 360.040 207.340, 361.974 198.580, 367.057 189.157 C 374.835 174.737, 386.840 163.601, 402.160 156.597 C 415.773 150.373, 427.321 149.161, 462 150.316 C 475.475 150.764, 565.475 151.283, 662 151.469 L 837.500 151.806 844 153.979 C 858.106 158.695, 876.305 173.429, 883.855 186.247 C 894.786 204.807, 896.774 225.470, 889.611 246.070 C 885.999 256.456, 881.453 263.522, 872.940 271.985 C 860.693 284.158, 846.327 290.037, 825.156 291.538 C 818.189 292.032, 815.046 292.625, 815.381 293.383 C 819.688 303.137, 826.018 319.945, 827.289 325 C 834.484 353.608, 835.452 386.833, 829.854 413 C 825.949 431.253, 809.722 467.323, 799.252 481.028 C 774.637 513.242, 762.917 523.663, 721.936 549.773 C 685.855 572.761, 671.588 592.146, 673.274 615.890 C 674.587 634.375, 688.014 655.940, 705.500 667.646 C 760.684 704.588, 771.932 713.705, 790.451 736.500 C 802.991 751.935, 809.296 762.826, 818.851 785.557 C 824.939 800.039, 829.413 815.602, 831.468 829.436 C 833.203 841.122, 833.507 873.124, 831.993 884.777 C 830.482 896.410, 825.436 915.805, 821.568 924.841 C 819.606 929.426, 818 933.362, 818 933.589 C 818 933.815, 821.316 934, 825.369 934 C 854.511 934, 875.986 947.048, 887.067 971.488 C 888.654 974.988, 890.246 979.685, 890.604 981.926 C 890.962 984.167, 891.662 986, 892.158 986 C 894.320 986, 930.295 957.769, 947.137 942.857 C 962.748 929.035, 972.755 919.101, 988.355 901.941 C 1029.470 856.714, 1056.307 815.943, 1077.506 766.500 C 1087.477 743.246, 1100.150 700.833, 1105.892 671.500 C 1112.601 637.228, 1114.467 615.856, 1114.403 574 C 1114.333 527.797, 1112.909 509.412, 1106.959 477.929 C 1103.505 459.653, 1099.528 445.747, 1086.674 407 C 1074.065 368.993, 1067.638 354.605, 1050.720 326.500 C 1016.913 270.339, 976.642 223.860, 928.688 185.654 C 913.768 173.767, 887.784 155.628, 874 147.477 C 867.675 143.737, 860.025 139.217, 857 137.433 C 840.339 127.609, 808.183 113.767, 780.664 104.573 C 761.230 98.080, 726.345 89.348, 706.500 86.010 C 673.781 80.505, 655.108 78.985, 622.272 79.150 C 605.898 79.232, 591.150 79.456, 589.500 79.647 M 430 198.936 C 422.831 200.383, 414.949 206.538, 412.352 212.718 C 407.688 223.816, 414.828 238.498, 427.648 244.168 C 431.767 245.990, 437.933 246.040, 628.199 245.774 L 824.500 245.500 829.463 243.212 C 836.036 240.182, 837.834 238.458, 840.632 232.500 C 845.219 222.733, 843.111 212.997, 834.746 205.317 C 826.127 197.404, 842.967 197.986, 626.568 198.115 C 520.381 198.178, 431.925 198.548, 430 198.936 M 312.984 288.854 C 306.257 292.434, 303.224 301.813, 306.364 309.329 C 309.103 315.885, 317.177 320.176, 323.695 318.541 C 328.212 317.407, 334.597 310.149, 335.355 305.286 C 336.206 299.831, 333.925 294.020, 329.362 290.013 C 326.580 287.571, 325.035 287, 321.200 287 C 318.512 287, 314.964 287.801, 312.984 288.854 M 924.010 291.610 C 912.765 301.769, 918.745 318, 933.733 318 C 939.373 318, 944.138 315.058, 946.750 309.964 C 950.565 302.524, 949.357 297.155, 942.516 291.148 C 939.431 288.439, 938.169 288, 933.468 288 C 928.598 288, 927.572 288.392, 924.010 291.610 M 503.374 292.689 C 500.561 293.241, 498.170 295.971, 492.593 305 C 470.796 340.284, 469.491 396.244, 489.536 436.067 C 497.695 452.277, 514.115 472.862, 527.500 483.659 C 531.900 487.209, 545.237 496.638, 557.138 504.614 C 585.600 523.690, 597.945 533.652, 605.224 543.418 C 612.925 553.750, 619.110 565.350, 623.623 577.926 C 626.517 585.991, 627.545 587.916, 628.162 586.426 C 628.601 585.367, 630.788 579.700, 633.022 573.834 C 640.218 554.935, 654.092 535.686, 669.338 523.448 C 673.827 519.845, 682.900 513.491, 689.500 509.327 C 717.427 491.708, 734.013 478.562, 745.329 465.075 C 769.511 436.253, 779.348 411.132, 780.699 374.749 C 781.562 351.509, 779.176 337.576, 771.236 319.500 C 767.848 311.786, 757.928 293.722, 756.555 292.765 C 755.473 292.012, 507.207 291.937, 503.374 292.689 M 618.591 374.573 C 612.896 376.660, 608.422 380.425, 605.272 385.784 C 602.921 389.783, 602.512 391.564, 602.581 397.500 C 602.718 409.240, 607.698 417.428, 618.060 422.951 C 623.297 425.743, 624.976 426.165, 629.356 425.793 C 638.696 425, 647.367 418.993, 651.480 410.467 C 654.300 404.621, 654.135 393.945, 651.129 387.753 C 645.433 376.021, 630.808 370.097, 618.591 374.573 M 219.919 473.942 C 207.995 474.471, 207.139 474.651, 203.550 477.392 C 192.665 485.702, 193.973 503.120, 205.990 509.874 C 209.828 512.031, 210.705 512.092, 233.930 511.801 L 257.907 511.500 261.921 507.579 C 266.844 502.769, 269 498.420, 269 493.295 C 269 487.544, 264.735 479.766, 259.715 476.360 C 255.699 473.635, 254.957 473.497, 244 473.442 C 237.675 473.410, 226.838 473.635, 219.919 473.942 M 1001 474.022 C 994.856 475.456, 989.011 484.220, 989.011 492 C 989.011 496.805, 991.161 502.172, 994.618 505.999 C 999.303 511.185, 1003.666 512, 1026.737 512 C 1044.196 512, 1045.576 511.863, 1048.528 509.840 C 1059.375 502.408, 1061.005 486.853, 1051.834 478.298 C 1046.825 473.626, 1043.348 472.993, 1023.282 473.102 C 1012.952 473.159, 1002.925 473.572, 1001 474.022 M 608.800 682.762 C 607.150 685.555, 595.435 697.342, 589 702.683 C 580.549 709.698, 571.030 716.681, 556.300 726.669 C 537.050 739.724, 528.112 746.840, 516.981 757.977 C 494.934 780.033, 485.123 796.716, 479.460 821.778 C 472.596 852.153, 473.826 881.340, 483.073 907.552 C 486.470 917.180, 492.603 930.085, 494.294 931.162 C 495.872 932.167, 498.838 930.731, 508.588 924.238 C 513.490 920.974, 524.250 914.038, 532.500 908.824 C 540.750 903.610, 559.200 891.772, 573.500 882.517 C 587.800 873.262, 602.200 864.219, 605.500 862.420 C 613.965 857.808, 622.186 855.636, 628.652 856.304 C 635.219 856.981, 648.225 863.036, 664.500 872.991 C 671.100 877.028, 682.800 884.152, 690.500 888.822 C 698.200 893.493, 709.675 900.774, 716 905.002 C 741.965 922.361, 759.215 932.516, 761.347 931.696 C 763.249 930.965, 771.591 913.173, 774.802 903 C 776.451 897.775, 778.578 889, 779.528 883.500 C 781.871 869.938, 781.909 844.645, 779.605 832.670 C 777.328 820.840, 771.161 803.635, 765.903 794.445 C 760.947 785.782, 749.715 770.471, 743.667 764.134 C 733.423 753.399, 704.351 730.348, 676 710.482 C 671.325 707.207, 662.550 699.569, 656.500 693.511 L 645.500 682.495 645.500 724.497 L 645.500 766.500 643.200 770.200 C 637.294 779.697, 624.575 781.562, 615.839 774.211 C 610.039 769.331, 609.917 768.386, 609.967 728.688 C 609.992 708.785, 610.296 689.688, 610.644 686.250 C 610.992 682.813, 611.086 680, 610.854 680 C 610.621 680, 609.697 681.243, 608.800 682.762 M 620.301 799.593 C 610.791 803.080, 603.952 814.525, 605.442 824.459 C 606.427 831.031, 611.697 838.949, 616.907 841.685 C 626.399 846.670, 639.702 843.536, 646.009 834.828 C 648.789 830.991, 649 830.082, 649 821.928 C 649 813.553, 648.851 812.961, 645.715 808.849 C 639.093 800.166, 628.881 796.447, 620.301 799.593 M 429.882 979.381 C 419.107 983.231, 411 993.587, 411 1003.500 C 411 1013.232, 421.021 1024.430, 432.500 1027.525 C 434.150 1027.970, 522.125 1028.221, 628 1028.083 C 814.632 1027.840, 820.666 1027.774, 825.954 1025.920 C 832.101 1023.765, 838.102 1018.514, 841.290 1012.500 C 843.977 1007.430, 844.183 997.937, 841.707 993.297 C 839.148 988.503, 833.123 983.022, 827.500 980.374 L 822.500 978.020 628 978.054 C 471.567 978.081, 432.792 978.341, 429.882 979.381" stroke="none" fill="#f4e095" fill-rule="evenodd"/></svg>